<?xml version="1.0" encoding="UTF-8"?>
<svg width="151px" height="215px" viewBox="0 0 151 215" version="1.1" xmlns="http://www.w3.org/2000/svg" xmlns:xlink="http://www.w3.org/1999/xlink">
    <!-- Generator: Sketch 51.2 (57519) - http://www.bohemiancoding.com/sketch -->
    <title>Blackboard</title>
    <desc>Created with Sketch.</desc>
    <defs>
        <linearGradient x1="50%" y1="0%" x2="50%" y2="83.6276192%" id="linearGradient-1">
            <stop stop-color="#FDC0C8" offset="0%"></stop>
            <stop stop-color="#FFFFFF" offset="100%"></stop>
        </linearGradient>
        <polygon id="path-2" points="0.17474359 0.333781358 28.6981026 0.333781358 28.6981026 21.9594675 0.17474359 21.9594675"></polygon>
        <path d="M25.5885882,26.7588485 C19.3394118,39.056303 15.8676471,46.9130101 15.1748235,50.3282222 C14.1332941,55.4536566 11.0094706,71.8510101 12.0502353,72.874303 C12.7438235,73.5574949 8.92641176,73.5574949 0.595705882,72.874303 C0.595705882,23.6852323 1.28929412,-0.568080808 2.67876471,0.115111111 C4.06747059,0.79830303 11.7030588,6.60618182 25.5885882,17.5365051 L25.5885882,26.7588485 Z" id="path-4"></path>
        <path d="M12.6688824,2.4 C10.5865882,5.8035 9.54505882,7.84575 9.54505882,8.52825 C9.54505882,9.2085 7.11482353,11.25075 2.25511765,14.65575 L0.172058824,3.42075 L4.33817647,0.35775 L12.6688824,2.4 Z" id="path-6"></path>
        <path d="M22.896129,17.5350789 C14.1405484,21.0265263 10.8804839,25.9275263 10.2075484,27.3248684 C9.5346129,28.7206842 5.7626129,29.2175 1.72129032,27.1233947 L0.547548387,0.103026316" id="path-8"></path>
        <path d="M0.9375,4.3975 C0.179166667,3.68916667 0.3275,2.29416667 1.27333333,1.28166667 C2.21666667,0.2675 3.59916667,0.0208333333 4.35916667,0.73 C5.1175,1.43833333 4.9675,2.83333333 4.02333333,3.84583333" id="path-10"></path>
        <path d="M0.795833333,3.46066667 C0.0358333333,2.89466667 0.185833333,1.778 1.13,0.968 C2.07416667,0.158 3.4575,-0.04 4.2175,0.527333333 C4.97583333,1.094 4.82666667,2.21 3.8825,3.02" id="path-12"></path>
        <path d="M8.36610526,1.55021429 C11.7121053,0.0911428571 13.3825263,0.4565 13.3825263,2.64471429 C13.3825263,4.43535714 13.0841053,4.27271429 12.3244211,4.10928571 C11.6914737,3.97414286 10.738,3.83821429 9.36894737,4.83371429 C7.36326316,6.292 5.69063158,8.11485714 4.35252632,10.3038571 L0.340421053,9.35078571 L8.36610526,1.55021429 Z" id="path-14"></path>
        <polygon id="path-16" points="0.0448421053 0.287305533 70.3273684 0.287305533 70.3273684 62.6623244 0.0448421053 62.6623244"></polygon>
    </defs>
    <g id="Page-1" stroke="none" stroke-width="1" fill="none" fill-rule="evenodd">
        <g id="Final-Version" transform="translate(-644.000000, -422.000000)">
            <g id="Blackboard" transform="translate(644.000000, 422.000000)">
                <g id="Origin-Door" transform="translate(7.000000, 9.000000)" fill="url(#linearGradient-1)">
                    <rect id="DoorOpening" x="0.766917293" y="0.0165745856" width="136.466165" height="194.983425"></rect>
                </g>
                <rect id="Rectangle" fill-opacity="0.2" fill="#000000" x="5" y="49" width="5" height="153"></rect>
                <path d="M1,0 L151,0 L151,204 L1,204 L1,0 Z M7.5,8.84 L7.5,203.823425 L144.5,203.823425 L144.5,8.84 L7.5,8.84 Z" id="Combined-Shape" fill="#C0485F"></path>
                <g id="Group-5" transform="translate(35.000000, 44.000000)">
                    <polygon id="Path-166" fill="#4E5468" points="108.978269 0 9.99763789 0 0 91 109 91"></polygon>
                    <rect id="Rectangle-14" fill="#94552A" x="10" y="90" width="7" height="70"></rect>
                    <rect id="Rectangle-18" fill-opacity="0.3" fill="#000000" x="10" y="94" width="7" height="4"></rect>
                    <rect id="Rectangle-14-Copy" fill="#94552A" transform="translate(61.750000, 111.000000) rotate(90.000000) translate(-61.750000, -111.000000) " x="55.75" y="63.25" width="12" height="95.5"></rect>
                    <rect id="Rectangle-14-Copy-2" fill-opacity="0.3" fill="#000000" x="17" y="105" width="92" height="6"></rect>
                    <path d="M64,50 C68.9705627,50 73,46.1944204 73,41.5 C73,36.8055796 68.9705627,33 64,33 C59.0294373,33 55,36.8055796 55,41.5 C55,46.1944204 59.0294373,50 64,50 Z" id="Oval-9" stroke="#D4DBF2" stroke-width="2" stroke-dasharray="5,5"></path>
                    <path d="M95,70 C99.9705627,70 104,66.1944204 104,61.5 C104,56.8055796 99.9705627,53 95,53 C90.0294373,53 86,56.8055796 86,61.5 C86,66.1944204 90.0294373,70 95,70 Z" id="Oval-9-Copy" stroke="#D4DBF2" stroke-width="2" stroke-dasharray="5,5"></path>
                    <path d="M40,77 C44.9705627,77 49,73.1944204 49,68.5 C49,63.8055796 44.9705627,60 40,60 C35.0294373,60 31,63.8055796 31,68.5 C31,73.1944204 35.0294373,77 40,77 Z" id="Oval-9-Copy-2" stroke="#D4DBF2" stroke-width="2" stroke-dasharray="5,5"></path>
                    <text id="samhlaigh" font-family="Chalkduster" font-size="16" font-weight="normal" fill="#D4DBF2">
                        <tspan x="16" y="25">samhlaigh</tspan>
                    </text>
                    <rect id="Rectangle-4" fill="#2A3046" x="0" y="90" width="109" height="4"></rect>
                    <path d="M76,36.278174 C76,36.278174 83.9379845,32.363766 88.8992248,38.235378 C92.2067183,42.149786 92.8682171,45.7379933 90.8837209,49" id="Path-167" stroke="#D4DBF2" stroke-width="2" stroke-dasharray="5,5"></path>
                    <path d="M51,55.278174 C51,55.278174 58.9379845,51.363766 63.8992248,57.235378 C67.2067183,61.149786 67.8682171,64.7379933 65.8837209,68" id="Path-167-Copy" stroke="#D4DBF2" stroke-width="2" stroke-dasharray="5,5" transform="translate(59.000000, 61.000000) rotate(90.000000) translate(-59.000000, -61.000000) "></path>
                </g>
                <g id="welcome" transform="translate(0.000000, 23.000000)">
                    <g id="Group-3" transform="translate(68.000000, 58.000000)">
                        <mask id="mask-3" fill="white">
                            <use xlink:href="#path-2"></use>
                        </mask>
                        <g id="Clip-2"></g>
                        <path d="M1.69687179,6.4064 L7.04253846,8.14586667 C7.04253846,8.14586667 11.3285897,3.432 11.4431026,3.33226667 C11.5576154,3.23253333 14.4174615,0.841866667 14.4174615,0.841866667 C14.4174615,0.841866667 17.2988718,-0.921066667 16.6407949,2.1208 C15.9819744,5.16266667 13.7192308,6.04853333 13.7192308,6.04853333 C13.7192308,6.04853333 11.9576667,7.85913333 13.7653333,8.525 C15.5722564,9.1916 18.4097949,10.1222 18.4097949,10.1222 C18.4097949,10.1222 23.2825385,10.8452667 24.6477692,11.0344667 C26.013,11.2229333 28.1664359,11.4297333 28.0623333,12.4659333 C27.956,13.5021333 26.9581026,14.3300667 26.013,14.4862667 C25.068641,14.641 18.2796667,13.3738 18.2796667,13.3738 L23.8432051,15.1653333 C23.8432051,15.1653333 27.2808205,15.5738 28.0653077,16.0402 C28.8490513,16.5058667 29.1078205,18.5181333 27.6407179,18.7850667 C26.1758462,19.0527333 20.4011282,17.3616667 20.4011282,17.3616667 L17.5152564,16.5168667 C17.5152564,16.5168667 23.9651538,19.6137333 24.2283846,19.7171333 C24.4908718,19.8212667 25.8561026,19.9767333 25.9609487,20.3903333 C26.0665385,20.8046667 26.2249231,22.8081333 21.3454872,21.5497333 C16.4653077,20.2913333 14.9320256,19.3548667 14.9320256,19.3548667 L7.05592308,16.4259333 C7.05592308,16.4259333 5.58733333,15.0450667 5.34938462,13.7045333 C5.11069231,12.3625333 0.17474359,11.4825333 0.17474359,11.4825333 L1.69687179,6.4064" id="Fill-1" fill="#E89A6D" mask="url(#mask-3)"></path>
                    </g>
                    <path d="M29.3145489,41 C29.3145489,41 38.4706532,46.6460051 42.4063979,48.6841269 C46.3429009,50.7222486 60.808848,58.0173345 60.808848,58.0173345 L74.3405298,62.994038 C74.3405298,62.994038 75.6676113,64.175514 74.5566545,66.7839775 C73.444181,69.3931963 71.0660509,72.5478281 68.7061207,73.3463064 C66.3469489,74.1425186 64.7529344,74.926644 60.8816479,71.061918 C57.0103615,67.1987028 53.9853739,64.4701276 45.5087354,61.0246594 C37.0343718,57.5791912 21.6629759,55.0304059 19.5419204,55.8802528 C17.4208649,56.7293443 21.7016508,45.5506469 29.3145489,41" id="Fill-4" fill="#729B68"></path>
                    <g id="Group-9" transform="translate(7.000000, 169.000000)">
                        <polyline id="Fill-5" fill="#261C15" points="5.48497297 16.2216774 7.56151351 15.5086774 6.67535135 13.6538387 4.18486486 13.6538387 5.48497297 16.2216774"></polyline>
                        <path d="M8.71481081,2.34748387 C8.71481081,2.34748387 16.6108108,10.6742258 19.8444324,12.2308065 C23.0772973,13.7866452 27.7843243,14.9418387 27.5436757,17.7834516 C27.3015135,20.6250645 28.0015135,23.2826774 22.6187027,22.9755161 C17.2343784,22.6683548 9.35427027,17.7834516 9.35427027,17.7834516 L5.48497297,15.0709355 L5.48497297,16.2216774 L2.92410811,14.1694839 L0.471459459,12.6737419 L0.471459459,1.50464516 C0.471459459,1.50464516 3.28659459,-1.91270968 8.71481081,2.34748387" id="Fill-7" fill="#7D5229"></path>
                        <path d="M5.48497297,16.2216774 L5.48497297,15.0709355 L9.35427027,17.7834516 C9.35427027,17.7834516 17.2343784,22.6683548 22.6187027,22.9755161 C28.0015135,23.2826774 27.3015135,20.6250645 27.5436757,17.7834516 C27.6246486,16.824129 25.7388108,17.1535484 24.8935135,17.7834516 C23.9180541,18.5098065 24.4016216,19.3570968 22.5551351,19.4772903 C20.7094054,19.5974839 18.6177297,19.5989677 16.2793514,18.6344516 C13.9424865,17.6691935 0.471459459,9.4656129 0.471459459,9.4656129 L0.471459459,12.6737419 L5.48497297,16.2216774" id="Fill-8" fill="#583724"></path>
                    </g>
                    <path d="M14.9997063,94 C14.9997063,94 16.6460567,111.195455 16.7473932,114.017146 C16.8487296,116.839587 16.890586,132.409478 16.9684241,133.906136 C17.0469966,135.402044 19.9196651,162.155276 19.9196651,162.155276 L22,174.925209 C22,174.925209 20.8059921,176.564264 15.9991188,176.967469 C11.1922456,177.369926 7,173.905204 7,173.905204 L7,95.2823145 L14.9997063,94" id="Fill-10" fill="#444F53"></path>
                    <g id="Group-13" transform="translate(6.000000, 25.000000)">
                        <mask id="mask-5" fill="white">
                            <use xlink:href="#path-4"></use>
                        </mask>
                        <g id="Clip-12"></g>
                        <polygon id="Fill-11" fill="#729B68" mask="url(#mask-5)" points="0.535294118 73.4020202 25.6788235 73.4020202 25.6788235 0.0298989899 0.535294118 0.0298989899"></polygon>
                    </g>
                    <g id="Group-16" transform="translate(11.000000, 37.000000)">
                        <mask id="mask-7" fill="white">
                            <use xlink:href="#path-6"></use>
                        </mask>
                        <g id="Clip-15"></g>
                        <polygon id="Fill-14" fill="#E89A6D" mask="url(#mask-7)" points="0.168235294 14.67 12.74 14.67 12.74 0.27 0.168235294 0.27"></polygon>
                    </g>
                    <g id="Group-22" transform="translate(8.000000, 25.000000)">
                        <mask id="mask-9" fill="white">
                            <use xlink:href="#path-8"></use>
                        </mask>
                        <g id="Clip-18"></g>
                        <path d="M0.598,1.26836842 L0.547548387,0.103026316 L0.845806452,0.335789474 C0.760483871,0.528105263 0.677387097,0.838710526 0.598,1.26836842" id="Fill-17" fill="#B1ADA9" mask="url(#mask-9)"></path>
                        <path d="M22.896129,17.5350789 C22.8953871,17.5343158 22.8939032,17.5335526 22.8931613,17.5327895 L22.896129,17.5350789" id="Fill-19" fill="#5C7856" mask="url(#mask-9)"></path>
                        <path d="M7.03280645,28.5352368 C5.53112903,28.5352368 3.657,28.1269474 1.72129032,27.1233947 L0.598,1.26836842 C0.677387097,0.838710526 0.760483871,0.528105263 0.845806452,0.335789474 L22.8931613,17.5327895 C22.8939032,17.5335526 22.8953871,17.5343158 22.896129,17.5350789 C14.1405484,21.0265263 10.8804839,25.9275263 10.2075484,27.3248684 C9.85735484,28.0521579 8.66506452,28.5352368 7.03280645,28.5352368 M7.17674194,12.5745526 L3.13467742,15.6912895 L5.15570968,27.1233947 C9.87070968,23.6586579 12.2285806,21.5805789 12.2285806,20.8883947 C12.2285806,20.1939211 13.2390968,18.1158421 15.2593871,14.6526316 L7.17674194,12.5745526" id="Fill-20" fill="#5C7856" mask="url(#mask-9)"></path>
                        <path d="M5.15570968,27.1233947 L3.13467742,15.6912895 L7.17674194,12.5745526 L15.2593871,14.6526316 C13.2390968,18.1158421 12.2285806,20.1939211 12.2285806,20.8883947 C12.2285806,21.5805789 9.87070968,23.6586579 5.15570968,27.1233947" id="Fill-21" fill="#A57358" mask="url(#mask-9)"></path>
                    </g>
                    <path d="M16.3857472,11.2616412 C16.3857472,11.2616412 20.3386853,1.55758611 26.4181288,0.349465831 C32.4975722,-0.85940623 42.2841022,0.893007187 43.4197734,8.36801645 C44.5576729,15.8437775 44.2887959,18.6990611 40.1702236,26.9070619 C36.0516513,35.1158144 30.5463568,39.4987274 30.5463568,39.4987274 C30.5463568,39.4987274 29.297787,41.7428089 23.1537239,43.5688974 C17.0111463,45.394234 13.1822481,41.401498 12.2560336,32.0011645 C11.3290763,22.600831 12.9675922,19.7853921 16.3857472,11.2616412" id="Fill-23" fill="#E89A6D"></path>
                    <g id="Group-27" transform="translate(30.000000, 22.000000)">
                        <mask id="mask-11" fill="white">
                            <use xlink:href="#path-10"></use>
                        </mask>
                        <g id="Clip-26"></g>
                        <polyline id="Fill-25" fill="#2F1C18" mask="url(#mask-11)" points="2.70416667 -8.57166667 13.7516667 1.73166667 2.59333333 13.6991667 -8.45666667 3.39583333 2.70416667 -8.57166667"></polyline>
                    </g>
                    <g id="Group-30" transform="translate(24.000000, 19.000000)">
                        <mask id="mask-13" fill="white">
                            <use xlink:href="#path-12"></use>
                        </mask>
                        <g id="Clip-29"></g>
                        <polyline id="Fill-28" fill="#2F1C18" mask="url(#mask-13)" points="2.56083333 -6.914 13.61 1.32866667 2.45166667 10.9026667 -8.5975 2.65933333 2.56083333 -6.914"></polyline>
                    </g>
                    <g id="Group-33" transform="translate(31.000000, 26.000000)">
                        <mask id="mask-15" fill="white">
                            <use xlink:href="#path-14"></use>
                        </mask>
                        <g id="Clip-32"></g>
                        <polygon id="Fill-31" fill="#E89A6D" mask="url(#mask-15)" points="0.338947368 10.34 13.4252632 10.34 13.4252632 0.628571429 0.338947368 0.628571429"></polygon>
                    </g>
                    <path d="M24.9929058,11.2657974 C25.2326743,9.784935 27,7.91898897 27,6.39500914 C27,4.87028591 24.9929058,2.58357276 24.9929058,2.58357276 L23.5813655,2 C19.2369153,5.04721625 16.5669773,11.2657974 16.5669773,11.2657974 C13.0075755,19.6945209 11.301352,22.4785719 12.2666135,31.7741054 C12.5527888,34.5358542 13.1127642,36.8143899 13.9171488,38.6208636 C13.9620087,38.6885134 14.0378065,38.9353238 14.0811195,39 C13.5613633,36.9920637 14.3425445,34.1284684 14.4608819,31.9317072 C14.6109305,29.1365052 16.5669773,22.59826 16.5669773,22.59826 C16.5669773,22.59826 18.6722992,19.3540415 18.6738461,18.6046895 C18.675393,17.8560809 22.8868104,15.3151233 22.8868104,15.3151233 C22.8868104,15.3151233 24.7539107,12.7474031 24.9929058,11.2657974" id="Fill-34" fill="#C47F5C"></path>
                    <path d="M17.3733513,12.8761742 C17.3733513,12.8761742 19.2054154,9.49248858 16.6044304,9.09114044 C14.0034455,8.6897923 14.4273378,9.66695376 14.5395669,10.9836573 C14.6510376,12.3003609 14.2673355,15.224804 13.4847651,17.3809746 C12.7021947,19.5371451 12.7423848,21.5431034 14.5395669,20.8663663 C16.3359906,20.1888468 17.3733513,12.8761742 17.3733513,12.8761742" id="Fill-35" fill="#E89A6D"></path>
                    <path d="M29,31.5153395 C29,31.5153395 26.1629,32.0197568 24.8169307,29.8612144 C23.4717679,27.7019147 22.9685415,27.7019147 23.5120905,27.3095901 C24.0556395,26.9172656 24.5580594,26.9172656 24.5580594,26.9172656 C24.5580594,26.9172656 24.6274143,25.7395346 23.2967677,26.0530912 C21.9653145,26.3674053 21.5217656,29.8574275 22.6209604,31.2351077 C23.7185423,32.6127879 27.0895139,31.7569448 29,31.5153395" id="Fill-36" fill="#C47F5C"></path>
                    <path d="M16,26.544064 C16,26.544064 17.9574828,25.5333528 18.6423481,26.2670828 C19.3272134,27.0008128 19.2329992,30.6115978 21.4050006,32.2241065 C23.5762773,33.8366152 28,36 28,36 C28,36 23.2675444,35.7129889 20.122237,33.6120984 C16.9776543,31.5112079 17.3711801,30.1926542 17.4335065,29.1680553 C17.4951081,28.1434565 18.4155091,26.2308206 16,26.544064" id="Fill-37" fill="#2F1C18"></path>
                    <polyline id="Fill-38" fill="#202525" points="15.7742488 98.5776081 16 100.575912 7 101 7 98 15.7742488 98.5776081"></polyline>
                    <path d="M29.0903578,42 C29.0903578,42 30.0520849,42.4072606 28.9527579,44.3469257 C27.853431,46.2865908 13.718176,54.6404193 10.4025352,55.6336444 C7.08615865,56.6268695 10.6917156,60 10.6917156,60 C10.6917156,60 24.9542688,49.3774767 26.3398329,48.5591205 C27.7268686,47.7399974 31.7996763,43.743321 29.0903578,42" id="Fill-39" fill="#56774E"></path>
                    <g id="Group-43" transform="translate(0.000000, 11.000000)">
                        <mask id="mask-17" fill="white">
                            <use xlink:href="#path-16"></use>
                        </mask>
                        <g id="Clip-41"></g>
                        <path d="M70.3273684,60.795 C70.3027053,60.789 66.7160842,59.943 61.0629895,55.7415 C55.3904632,51.52425 44.6761895,46.464 42.3638316,45.83175 C40.0529684,45.19875 29.5479579,43.512 29.5479579,43.512 C29.5479579,43.512 28.7258526,44.274 28.3185368,45.273 L28.4702526,45.29775 C33.9327684,46.21725 40.7711895,47.8575 45.4639158,49.77975 C53.818,53.2005 56.7985053,55.9095 60.6145684,59.745 C64.4298842,63.582 66.0008526,62.80425 68.3259158,62.013 C69.0022842,61.782 69.6794,61.35 70.3273684,60.795" id="Fill-40" fill="#56774E" mask="url(#mask-17)"></path>
                        <path d="M7.07010526,0.903 C7.07010526,0.903 9.67543158,0.108 10.6320632,0.32475 C11.5879474,0.54225 12.9952421,1.74975 12.9616105,3.3825 C12.9272316,5.0145 12.0587895,5.26875 12.0587895,5.26875 C12.0587895,5.26875 11.8196316,5.208 12.3248526,6.16875 C12.8300737,7.13025 12.8233474,7.404 12.9227474,7.9845 C13.0228947,8.56575 12.9272316,10.17675 13.5468,10.7925 C14.1663684,11.409 12.3898737,13.04175 12.3248526,13.83225 C12.2598316,14.62275 13.0004737,14.9535 12.6671474,16.0515 C12.3338211,17.15025 5.49390526,19.7295 5.49390526,19.7295 C5.49390526,19.7295 1.27202105,19.40625 2.49023158,16.73775 C3.70844211,14.0685 3.70844211,14.0685 3.70844211,14.0685 C3.70844211,14.0685 -0.319873684,13.308 0.0201789474,11.559 C0.360231579,9.81 1.42448421,7.89075 2.39681053,7.47375 C3.36913684,7.05675 2.12476842,4.11825 3.70470526,2.8785 C5.28464211,1.63875 7.07010526,0.903 7.07010526,0.903" id="Fill-42" fill="#E89A6D" mask="url(#mask-17)"></path>
                    </g>
                    <path d="M3.97305516,25.5460931 L3,28 C3,28 5.37486274,27.9824407 7.15677,27.3906936 C8.93943745,26.7989464 12,25 12,25 C12,25 5.12855816,26.476734 3.97305516,25.5460931" id="Fill-44" fill="#C47F5C"></path>
                    <path d="M2.37961262,20.0122334 L2,21 C2,21 12.0924869,17.6630848 11.9993594,17.0762109 C11.906232,16.4885105 11.9993594,16 11.9993594,16 L3.4016466,18.4995867 L2.37961262,20.0122334" id="Fill-45" fill="#C47F5C"></path>
                    <path d="M34,16 C34,16 35.8070623,17.2540955 35.8070623,18.677588 C35.8070623,20.1017776 35.8070623,22 35.8070623,22 C35.8070623,22 37.5737063,18.5653538 36.8072297,17.4890206 C36.0392834,16.4126873 34,16 34,16" id="Fill-46" fill="#2F1C18"></path>
                    <path d="M25,16 C25,16 30.1877717,14.2653774 31.5801232,14.514843 C32.9717532,14.7635813 30.5470417,12.5613015 29.4858246,13.0791428 C28.4253289,13.596984 25,16 25,16" id="Fill-47" fill="#2F1C18"></path>
                </g>
            </g>
        </g>
    </g>
</svg>